<?xml version="1.0" encoding="utf-8"?>
<!-- Generator: Adobe Illustrator 27.5.0, SVG Export Plug-In . SVG Version: 6.00 Build 0)  -->
<svg version="1.1" xmlns="http://www.w3.org/2000/svg" xmlns:xlink="http://www.w3.org/1999/xlink" x="0px" y="0px"
	 viewBox="0 0 2300 2000" style="enable-background:new 0 0 2300 2000;" xml:space="preserve">
<g id="background">
	<rect x="1" style="fill:#FFFFFF;" width="2300" height="2000"/>
</g>
<g id="illustrations">
	<g id="drawer">
		<rect x="144.506" y="809.49" style="fill:#CECECE;" width="492.739" height="1019.865"/>
		<rect x="301.501" y="839.427" style="fill:#EBEBEB;" width="311.717" height="273.655"/>
		<rect x="301.501" y="1145.096" style="fill:#EBEBEB;" width="311.717" height="273.655"/>
		<rect x="301.501" y="1450.891" style="fill:#EBEBEB;" width="311.717" height="348.652"/>
		
			<line style="fill:none;stroke:#CECECE;stroke-width:3;stroke-miterlimit:10;" x1="473.372" y1="839.427" x2="473.372" y2="1113.082"/>
		
			<line style="fill:none;stroke:#CECECE;stroke-width:3;stroke-miterlimit:10;" x1="473.372" y1="1145.096" x2="473.372" y2="1418.751"/>
		<rect x="414.486" y="1607.64" style="fill:#CECECE;" width="138.829" height="35.154"/>
		<rect x="301.501" y="910.186" style="fill:#BFBEBE;" width="40.776" height="202.896"/>
		<rect x="493.736" y="910.186" style="fill:#BFBEBE;" width="26.988" height="202.896"/>
		<rect x="383.103" y="910.285" style="fill:#BFBEBE;" width="69.906" height="202.896"/>
		<rect x="342.277" y="881.42" style="fill:#AAAAAA;" width="40.776" height="231.662"/>
		<rect x="452.959" y="910.186" style="fill:#AAAAAA;" width="40.776" height="202.896"/>
		<rect x="520.724" y="910.186" style="fill:#AAAAAA;" width="24.565" height="202.896"/>
		<rect x="390.826" y="921.098" style="fill:none;stroke:#EBEBEB;stroke-miterlimit:10;" width="54.46" height="181.27"/>
		<rect x="308.413" y="920.89" style="fill:none;stroke:#EBEBEB;stroke-miterlimit:10;" width="27.23" height="181.27"/>
		<rect x="459.757" y="921.098" style="fill:none;stroke:#EBEBEB;stroke-miterlimit:10;" width="27.23" height="181.27"/>
		<rect x="500.422" y="921.098" style="fill:none;stroke:#EBEBEB;stroke-miterlimit:10;" width="13.615" height="181.27"/>
		<rect x="301.501" y="1215.756" style="fill:#BFBEBE;" width="40.776" height="202.896"/>
		<rect x="493.736" y="1215.756" style="fill:#BFBEBE;" width="26.988" height="202.896"/>
		<rect x="383.103" y="1215.855" style="fill:#BFBEBE;" width="69.906" height="202.896"/>
		<rect x="342.277" y="1186.99" style="fill:#AAAAAA;" width="40.776" height="231.662"/>
		<rect x="452.959" y="1215.756" style="fill:#AAAAAA;" width="40.776" height="202.896"/>
		<rect x="520.724" y="1215.756" style="fill:#AAAAAA;" width="24.565" height="202.896"/>
		<rect x="390.826" y="1226.668" style="fill:none;stroke:#EBEBEB;stroke-miterlimit:10;" width="54.46" height="181.27"/>
		<rect x="308.413" y="1226.46" style="fill:none;stroke:#EBEBEB;stroke-miterlimit:10;" width="27.23" height="181.27"/>
		<rect x="459.757" y="1226.668" style="fill:none;stroke:#EBEBEB;stroke-miterlimit:10;" width="27.23" height="181.27"/>
		<rect x="500.422" y="1226.668" style="fill:none;stroke:#EBEBEB;stroke-miterlimit:10;" width="13.615" height="181.27"/>
	</g>
	<g id="window">
		<rect x="1697.167" y="216.919" style="fill:#CECECE;" width="367.792" height="820.054"/>
		<rect x="1717.86" y="241.605" style="fill:#FFFFFF;" width="326.404" height="770.682"/>
	</g>
	<g id="clock">
		<circle style="fill:#EBEBEB;" cx="1150" cy="360.232" r="130.832"/>
		<circle style="fill:#FFFFFF;" cx="1150" cy="360.232" r="110.261"/>
		<polyline style="fill:none;stroke:#CECECE;stroke-width:4;stroke-linecap:round;stroke-miterlimit:10;" points="1150,265.079 
			1150,360.232 1089.901,360.232 		"/>
	</g>
	<g id="plant">
		<path style="fill:#EBEBEB;" d="M1304.805,822.172c-0.213,41.864,6.233,78.407,33.399,98.395
			C1355.956,906.589,1352.613,853.726,1304.805,822.172z"/>
		<path style="fill:#EBEBEB;" d="M1353.193,955.707c-7.064-22.328-2.253-47.755,20.749-95.15
			C1394.873,893.151,1384.008,955.801,1353.193,955.707z"/>
		<path style="fill:#EBEBEB;" d="M1282.98,880.259c-27.156,39.177-15.034,91.838,45.932,102.958
			C1334.09,939.282,1288.788,916.055,1282.98,880.259z"/>
		<path style="fill:#EBEBEB;" d="M1352.847,1049.668c-12.904-37.16,28.308-57.806,37.448-92.344
			C1412.533,1007.069,1397.841,1056.041,1352.847,1049.668z"/>
		<path style="fill:#EBEBEB;" d="M1276.943,986.179c-24.039,35.756-14.203,99.507,42.174,84.755
			C1325.538,1036.133,1287.488,1036.133,1276.943,986.179z"/>
		<path style="fill:none;stroke:#CECECE;stroke-width:1.6238;stroke-linecap:round;stroke-miterlimit:10;" d="M1324.519,1094.286
			c19.494-50.315,25.226-170.061,0-230.571"/>
		<path style="fill:none;stroke:#CECECE;stroke-width:1.6238;stroke-linecap:round;stroke-miterlimit:10;" d="M1341.357,971.69
			c20.188-24.148,32.789-51.929,32.583-85.848"/>
		<path style="fill:none;stroke:#CECECE;stroke-width:1.6238;stroke-linecap:round;stroke-miterlimit:10;" d="M1283.343,906.231
			c-3.935,27.543,24.681,69.036,57.779,83.707"/>
		<path style="fill:none;stroke:#CECECE;stroke-width:1.6238;stroke-linecap:round;stroke-miterlimit:10;" d="M1334.09,1058.602
			c30.733-10.981,51.35-33.109,56.204-72.604"/>
		<path style="fill:none;stroke:#CECECE;stroke-width:1.6238;stroke-linecap:round;stroke-miterlimit:10;" d="M1276.943,1018.541
			c4.51,33.145,21.101,39.944,52.988,58.684"/>
		<polygon style="fill:#EBEBEB;" points="1369.164,1198.652 1286.56,1198.652 1278.441,1110.635 1377.283,1110.635 		"/>
		<rect x="1271.226" y="1094.286" style="fill:#CECECE;" width="113.271" height="16.348"/>
	</g>
	<g id="ornament">
		<circle style="fill:#FFA519;" cx="331.287" cy="372.104" r="15.021"/>
		<g>
			
				<line style="fill:none;stroke:#282626;stroke-width:3;stroke-linecap:round;stroke-miterlimit:10;" x1="249.723" y1="449.142" x2="268.166" y2="449.142"/>
			
				<line style="fill:none;stroke:#282626;stroke-width:3;stroke-linecap:round;stroke-miterlimit:10;" x1="249.723" y1="449.142" x2="268.166" y2="449.142"/>
			
				<line style="fill:none;stroke:#282626;stroke-width:3;stroke-linecap:round;stroke-miterlimit:10;" x1="258.945" y1="439.92" x2="258.945" y2="458.363"/>
			
				<line style="fill:none;stroke:#282626;stroke-width:3;stroke-linecap:round;stroke-miterlimit:10;" x1="258.945" y1="439.92" x2="258.945" y2="458.363"/>
		</g>
		<path style="fill:none;stroke:#282626;stroke-width:3;stroke-linecap:round;stroke-miterlimit:10;" d="M230.552,625.757
			c-4.202-19.781,7.519-39.357,20.672-54.718c40.17-46.912,99.33-77.07,160.892-82.019c19.06-1.532,39.752-0.248,54.811,11.536
			c13.864,10.849,20.393,28.788,22.47,46.269c5.915,49.798-22.128,101.869-66.962,124.337c-8.824,4.422-19.841,7.644-28.172,2.35
			c-3.509-13.963,12.216-24.709,25.777-29.542c27.964-9.966,58.357-15.056,87.494-9.368c29.137,5.689,56.807,23.281,70.04,49.856"/>
		<polygon style="fill:#048FFF;" points="612.086,533.656 624.791,511.855 637.497,533.656 		"/>
	</g>
	<g id="character">
		<g id="man">
			<g>
				<defs>
					<polygon id="XMLID_00000119113804739093871230000011688307835276338602_" points="826.576,1478.469 867.652,1831.709 
						841.513,1831.709 785.499,1478.469 					"/>
				</defs>
				<use xlink:href="#XMLID_00000119113804739093871230000011688307835276338602_"  style="overflow:visible;fill:#CECECE;"/>
				<clipPath id="XMLID_00000081639393519775053190000004682466431067284910_">
					<use xlink:href="#XMLID_00000119113804739093871230000011688307835276338602_"  style="overflow:visible;"/>
				</clipPath>
				<polygon style="clip-path:url(#XMLID_00000081639393519775053190000004682466431067284910_);fill:#EBEBEB;" points="
					866.021,1817.681 839.52,1817.681 841.513,1831.709 867.652,1831.709 				"/>
			</g>
			<g>
				<defs>
					<polygon id="XMLID_00000023245888297841385550000009656601071940985734_" points="950.388,1478.469 991.465,1831.709 
						965.326,1831.709 909.312,1478.469 					"/>
				</defs>
				<use xlink:href="#XMLID_00000023245888297841385550000009656601071940985734_"  style="overflow:visible;fill:#CECECE;"/>
				<clipPath id="XMLID_00000138545897728467496190000015072372658570033026_">
					<use xlink:href="#XMLID_00000023245888297841385550000009656601071940985734_"  style="overflow:visible;"/>
				</clipPath>
				<polygon style="clip-path:url(#XMLID_00000138545897728467496190000015072372658570033026_);fill:#EBEBEB;" points="
					989.834,1817.681 963.333,1817.681 965.326,1831.709 991.465,1831.709 				"/>
				
					<polygon id="XMLID_00000124860692101557347440000005176530665370818963_" style="opacity:0.2;clip-path:url(#XMLID_00000138545897728467496190000015072372658570033026_);" points="
					950.388,1478.469 991.465,1831.709 965.326,1831.709 909.312,1478.469 				"/>
			</g>
			<path style="fill:#FCB381;" d="M870.452,1757.329l-4.51-55.74h80.883c-0.396,8.984,6.279,49.657,8.246,55.74
				C943.219,1808.467,879.937,1791.791,870.452,1757.329z"/>
			<g>
				<defs>
					<path id="XMLID_00000012462597062649372580000015966537073569369772_" d="M927.819,1767.162l9.422,12.467l-2.114-11.507
						c-0.479-2.608,1.309-5.091,3.934-5.463l13.522-4.994c2.489-0.919,5.272,0.104,6.587,2.408
						c10.596,18.565,31.414,20.236,37.57,20.31c2.94,0.036,5.877,0.287,8.772,0.801c27.637,4.912,34.214,27.487,33.751,46.273
						c-0.074,2.99-2.507,5.38-5.498,5.38H871.086c-4.917,0-8.739-4.28-8.185-9.166l-0.052-55.722
						c-0.002-1.7,0.316-3.402,1.068-4.926c1.109-2.248,3.042-4.226,6.535-5.695c5.559,8.001,35.532,9.018,49.989,6.852
						C923.265,1763.759,926.097,1764.884,927.819,1767.162z"/>
				</defs>
				<use xlink:href="#XMLID_00000012462597062649372580000015966537073569369772_"  style="overflow:visible;fill:#687989;"/>
				<clipPath id="XMLID_00000083774473261900523590000017488674002163833232_">
					<use xlink:href="#XMLID_00000012462597062649372580000015966537073569369772_"  style="overflow:visible;"/>
				</clipPath>
				
					<rect x="862.332" y="1817.476" transform="matrix(-1 -4.485979e-11 4.485979e-11 -1 1908.7947 3653.8325)" style="clip-path:url(#XMLID_00000083774473261900523590000017488674002163833232_);fill:#FFFFFF;" width="184.131" height="18.88"/>
			</g>
			<path style="fill:#FCB381;" d="M1082.823,1757.329l-35.853-55.74h89.325c3.314,9.501,29.18,49.657,31.146,55.74
				C1155.591,1808.467,1092.309,1791.791,1082.823,1757.329z"/>
			<g>
				<defs>
					<path id="XMLID_00000057848013560532947550000007856810961372392371_" d="M1140.191,1767.162l9.422,12.467l-2.114-11.507
						c-0.479-2.608,1.309-5.091,3.934-5.463l13.522-4.994c2.489-0.919,5.272,0.104,6.587,2.408
						c10.596,18.565,31.414,20.236,37.57,20.31c2.94,0.036,5.876,0.287,8.772,0.801c27.637,4.912,34.214,27.487,33.751,46.273
						c-0.074,2.99-2.507,5.38-5.498,5.38h-162.679c-4.917,0-8.739-4.28-8.185-9.166l-0.052-55.722
						c-0.002-1.7,0.316-3.402,1.068-4.926c1.109-2.248,3.042-4.226,6.535-5.695c5.559,8.001,35.532,9.018,49.99,6.852
						C1135.637,1763.759,1138.469,1764.884,1140.191,1767.162z"/>
				</defs>
				<use xlink:href="#XMLID_00000057848013560532947550000007856810961372392371_"  style="overflow:visible;fill:#687989;"/>
				<clipPath id="XMLID_00000131338005337709053030000016450644530671493291_">
					<use xlink:href="#XMLID_00000057848013560532947550000007856810961372392371_"  style="overflow:visible;"/>
				</clipPath>
				
					<rect x="1075.273" y="1817.476" transform="matrix(-1 -4.485979e-11 4.485979e-11 -1 2334.6765 3653.8325)" style="clip-path:url(#XMLID_00000131338005337709053030000016450644530671493291_);fill:#FFFFFF;" width="184.131" height="18.88"/>
			</g>
			<path style="fill:#FFA519;" d="M793.727,845.037L793.727,845.037c29.804,7.116,55.221,26.526,69.854,53.448
				c32.031,58.931,60.559,119.144,84.771,180.937l92.047,5.741l-4.518,98.139H923.052c-32.45,0-60.516-22.607-67.427-54.312
				L793.727,845.037z"/>
			<path style="fill:#CECECE;" d="M608.83,989.758h200.452l65.332,317.255l-307.063,0
				C561.728,1169.593,535.234,998.742,608.83,989.758z"/>
			<polygon style="fill:#FFA519;" points="699.257,841.869 616.731,1284.366 874.615,1284.366 851.867,918.375 794.974,843.55 			
				"/>
			
				<line style="fill:none;stroke:#282626;stroke-width:3;stroke-linecap:round;stroke-miterlimit:10;" x1="874.615" y1="1253.824" x2="856.105" y2="980.88"/>
			<path style="fill:#292626;" d="M692.261,735.875c-24.864-60.822-5.667-91.098,26.713-97.151l6.782,101.295L692.261,735.875z"/>
			<g>
				<path style="fill:#292626;" d="M882.933,741.59c-0.039,0-0.078-0.001-0.118-0.004l-48.675-3.786
					c-0.826-0.064-1.443-0.786-1.379-1.612c0.064-0.827,0.783-1.442,1.612-1.379l48.675,3.786c0.826,0.064,1.443,0.786,1.379,1.612
					C884.366,740.993,883.709,741.59,882.933,741.59z"/>
			</g>
			<g>
				<defs>
					<polygon id="XMLID_00000041259228040267471280000017639958639461475733_" points="611.912,1478.325 570.835,1831.566 
						596.975,1831.566 652.989,1478.325 					"/>
				</defs>
				<use xlink:href="#XMLID_00000041259228040267471280000017639958639461475733_"  style="overflow:visible;fill:#CECECE;"/>
				<clipPath id="XMLID_00000108295982295067209020000002572585369475137415_">
					<use xlink:href="#XMLID_00000041259228040267471280000017639958639461475733_"  style="overflow:visible;"/>
				</clipPath>
				<polygon style="clip-path:url(#XMLID_00000108295982295067209020000002572585369475137415_);fill:#EBEBEB;" points="
					572.466,1817.538 598.968,1817.538 596.975,1831.566 570.835,1831.566 				"/>
			</g>
			<g>
				<defs>
					<polygon id="XMLID_00000039835779512265287710000007913187470276206768_" points="727.485,1478.325 686.408,1831.566 
						712.548,1831.566 768.562,1478.325 					"/>
				</defs>
				<use xlink:href="#XMLID_00000039835779512265287710000007913187470276206768_"  style="overflow:visible;fill:#CECECE;"/>
				<clipPath id="XMLID_00000064354160339840616280000018269472014535843503_">
					<use xlink:href="#XMLID_00000039835779512265287710000007913187470276206768_"  style="overflow:visible;"/>
				</clipPath>
				<polygon style="clip-path:url(#XMLID_00000064354160339840616280000018269472014535843503_);fill:#EBEBEB;" points="
					688.039,1817.538 714.54,1817.538 712.548,1831.566 686.408,1831.566 				"/>
				
					<polygon id="XMLID_00000176728287470888616750000010659082437468283279_" style="opacity:0.2;clip-path:url(#XMLID_00000064354160339840616280000018269472014535843503_);" points="
					727.485,1478.325 686.408,1831.566 712.548,1831.566 768.562,1478.325 				"/>
			</g>
			<path style="fill:#BFBEBE;" d="M684.79,1284.366h192.483c49.871,0,90.3,40.429,90.3,90.3v86.204H726.039
				c-40.285,0-73.415-31.744-75.134-71.992L684.79,1284.366z"/>
			<g>
				<defs>
					<path id="XMLID_00000078025181885822754770000011359358638547354550_" d="M794.974,833.437v10.113
						c8.539,13.955-4.13,53.858-9.705,64.791c-15.788-26.646-60.56-45.961-77.843-71.975c12.235-2.078,11.994-30.406,11.937-58.346
						c-14.662,12.184-34.649-0.07-36.346-17.108c-2.685-24.782,18.876-36.586,37.792-24.608l3.265-44.884
						c1.34-18.42,15.455-33.353,33.77-35.727h62.294c28.296,0,51.574,22.281,52.811,50.55l0.643,14.687
						C879.98,777.211,856.767,835.777,794.974,833.437z"/>
				</defs>
				<use xlink:href="#XMLID_00000078025181885822754770000011359358638547354550_"  style="overflow:visible;fill:#FFBB99;"/>
				<clipPath id="XMLID_00000127018844719061403620000013909647223365320117_">
					<use xlink:href="#XMLID_00000078025181885822754770000011359358638547354550_"  style="overflow:visible;"/>
				</clipPath>
				<path style="clip-path:url(#XMLID_00000127018844719061403620000013909647223365320117_);fill:#191818;" d="M794.974,833.437
					c-24.667-1.784-48.067-15.434-56.029-25.996C762.241,853.759,806.466,886.473,794.974,833.437z"/>
			</g>
			<ellipse style="fill:#282626;" cx="802.351" cy="739.935" rx="6.932" ry="7.39"/>
			<ellipse style="fill:#282626;" cx="848.039" cy="739.935" rx="6.932" ry="7.39"/>
			<path style="fill:none;stroke:#282626;stroke-width:3;stroke-linecap:round;stroke-miterlimit:10;" d="M824.186,755.835
				l-3.011,12.721c-0.036,0.152,0.136,0.257,0.262,0.165c5.386-3.959,10.928-3.356,13.301,0.922
				c1.173,2.116,0.867,5.342-0.547,7.306c-3.129,4.346-8.689,4.095-14.26,1.884"/>
			<rect x="785.327" y="1183.303" style="fill:#687989;" width="158.978" height="15.41"/>
			
				<rect x="944.305" y="1183.303" transform="matrix(-1 -1.224647e-16 1.224647e-16 -1 2126.3125 2382.0149)" style="fill:#687989;" width="237.702" height="15.41"/>
			<polygon style="fill:#687989;" points="944.305,1183.303 969.585,980.779 1204.837,980.779 1182.007,1183.303 			"/>
			<polyline style="fill:none;stroke:#282626;stroke-width:3;stroke-linecap:round;stroke-miterlimit:10;" points="
				1204.837,980.779 1182.007,1183.303 944.305,1183.303 			"/>
			<path style="fill:#282626;" d="M737.928,1284.37H624.287c-4.749,16.062-10.13,52.271-11.835,68.521
				c-6.029,57.461,39.245,107.427,97.021,107.427h108.299l33.241,271.817h112.787l-33.289-279.45
				c-3.217-27.003-16.467-51.907-37.383-69.287c-11.437-9.504-25.54-19.005-42.276-28.474L737.928,1284.37z"/>
			<path style="fill:#282626;" d="M867.465,1284.37l98.94,73.834c20.075,16.54,36.272,37.287,47.447,60.775l148.997,313.156
				h-115.932L896.158,1428.62l-158.23-144.251H867.465z"/>
			<path style="fill:#BFBEBE;" d="M576.957,1301.821h192.483c49.871,0,90.3,40.429,90.3,90.3v86.204H618.206
				c-40.285,0-73.414-31.744-75.134-71.992l-13.722-321.113c-1.535-30.522,2.365-94.279,68.341-95.462h11.139
				c-30.511,10.504-43.152,51.753-41.278,96.578L576.957,1301.821z"/>
			<path style="fill:none;stroke:#282626;stroke-width:3;stroke-linecap:round;stroke-miterlimit:10;" d="M618.206,1478.325
				c-40.285,0-73.414-31.744-75.134-71.992l-13.722-321.113c-1.535-30.522,2.365-94.279,68.341-95.462h11.139"/>
			
				<line style="fill:none;stroke:#282626;stroke-width:3;stroke-linecap:round;stroke-miterlimit:10;" x1="944.305" y1="1183.303" x2="944.305" y2="1198.712"/>
			
				<line style="fill:none;stroke:#282626;stroke-width:3;stroke-linecap:round;stroke-miterlimit:10;" x1="944.305" y1="1183.303" x2="944.305" y2="1198.712"/>
			<path style="fill:#FFFFFF;" d="M803.667,796.429h26.305c0.603,7.636-1.985,15.277-12.691,15.273
				C807.633,811.702,803.741,805.39,803.667,796.429z"/>
			<path style="fill:#292626;" d="M720.808,736.304c27.083,2.828,41.465-13.069,43.906-46.568
				c23.153,30.494,70.314,23.726,80.941-0.376c18.447,27.859,64.753,8.471,62.87-32.376c-6.594-55.042-49.694-48.376-58.165-42.918
				h-7.341c-17.193-40.874-65.506-28.8-73.976-11.671c-24.604-15.726-54.965,14.682-50.07,36.329L720.808,736.304z"/>
			<g>
				<path style="fill:#292626;" d="M878.296,760.414H837.12c-3.383,0-6.135-2.752-6.135-6.135v-28.376
					c0-3.383,2.752-6.135,6.135-6.135h41.176c3.383,0,6.135,2.752,6.135,6.135v28.376
					C884.431,757.661,881.679,760.414,878.296,760.414z M837.12,722.767c-1.729,0-3.135,1.406-3.135,3.135v28.376
					c0,1.729,1.406,3.135,3.135,3.135h41.176c1.729,0,3.135-1.406,3.135-3.135v-28.376c0-1.729-1.406-3.135-3.135-3.135H837.12z"/>
			</g>
			<g>
				<path style="fill:#292626;" d="M815.296,760.414h-41.176c-3.383,0-6.135-2.752-6.135-6.135v-28.376
					c0-3.383,2.752-6.135,6.135-6.135h41.176c3.383,0,6.135,2.752,6.135,6.135v28.376
					C821.431,757.661,818.679,760.414,815.296,760.414z M774.119,722.767c-1.729,0-3.135,1.406-3.135,3.135v28.376
					c0,1.729,1.406,3.135,3.135,3.135h41.176c1.729,0,3.135-1.406,3.135-3.135v-28.376c0-1.729-1.406-3.135-3.135-3.135H774.119z"/>
			</g>
			<g>
				<path style="fill:#292626;" d="M769.486,741.59c-0.064,0-0.129-0.004-0.194-0.012l-47.634-6.156
					c-0.821-0.106-1.401-0.858-1.295-1.68c0.106-0.821,0.856-1.4,1.68-1.295l47.634,6.156c0.821,0.106,1.401,0.858,1.295,1.68
					C770.874,741.039,770.229,741.59,769.486,741.59z"/>
			</g>
			<g>
				<path style="fill:#292626;" d="M832.486,738.755c-0.447,0-0.889-0.199-1.185-0.579c-0.798-1.025-2.767-1.688-5.016-1.689
					c-0.002,0-0.003,0-0.005,0c-2.266,0-4.39,0.695-5.167,1.69c-0.509,0.654-1.451,0.771-2.105,0.26
					c-0.653-0.509-0.77-1.452-0.26-2.105c1.636-2.099,4.963-2.846,7.533-2.846c0.001,0,0.003,0,0.005,0
					c3.236,0.001,5.995,1.065,7.382,2.847c0.509,0.654,0.392,1.596-0.262,2.105C833.132,738.652,832.808,738.755,832.486,738.755z"
					/>
			</g>
			<path style="fill:#FFF2E1;" d="M715.615,827.575h-1.461l-17.082,13.765l58.023,77.035l20.706-51.953
				C748.311,851.17,719.232,835.424,715.615,827.575z"/>
			<path style="fill:#FFF2E1;" d="M794.974,843.55L775.8,866.422l26.165,43.482C803.073,884.424,807.612,849.858,794.974,843.55z"/>
			<path style="fill:#FFF2E1;" d="M756.6,904.258c15.682,8.088,30.362,10.997,42.353,0L775.8,866.422L756.6,904.258z"/>
			<polygon style="fill:#FCD2BE;" points="782.856,1119.781 852.687,1115.834 852.687,1183.303 782.856,1183.303 			"/>
			<path style="fill:#FCD2BE;" d="M852.687,1115.834l41.753,14.481c5.158,1.789,7.513,7.871,4.727,12.566
				c-0.219,0.369-0.456,0.736-0.71,1.1l-24.127-9.24c-1.784-0.683-3.681-1.019-5.591-0.991l-16.052,0.242V1115.834z"/>
			<path style="fill:#FCD2BE;" d="M852.687,1133.992l16.066-0.242c1.901-0.029,3.79,0.304,5.567,0.981l30.917,11.78
				c4.252,1.62,6.468,6.428,4.736,10.636c-0.782,1.901-1.907,3.586-3.304,5.098l-34.742-11.872c-1.562-0.534-3.2-0.806-4.85-0.806
				h-14.39V1133.992z"/>
			<path style="fill:none;stroke:#282626;stroke-width:3;stroke-linecap:round;stroke-miterlimit:10;" d="M852.687,1133.992
				l16.066-0.242c1.901-0.029,3.79,0.304,5.567,0.981l30.917,11.78c4.252,1.62,6.468,6.428,4.736,10.636
				c-0.782,1.901-1.907,3.586-3.304,5.098"/>
			<path style="fill:#FCD2BE;" d="M852.687,1165.985h8.918c1.151,0,2.298,0.132,3.419,0.395l39.898,9.339
				c3.493,0.818,7.226-1.321,8.015-4.821c0.015-0.065,0.029-0.131,0.043-0.197c0.683-3.255-1.254-6.5-4.396-7.59l-36.625-12.713
				c-1.582-0.549-3.244-0.829-4.919-0.829h-14.352V1165.985z"/>
			<path style="fill:none;stroke:#282626;stroke-width:3;stroke-linecap:round;stroke-miterlimit:10;" d="M852.687,1149.568h14.352
				c1.674,0,3.337,0.28,4.919,0.829l36.625,12.713c3.142,1.091,5.079,4.335,4.396,7.59c-0.014,0.066-0.028,0.131-0.043,0.197
				c-1.278,4.74-5.003,5.707-10.273,4.292l-8.628-1.9"/>
			<path style="fill:#FCD2BE;" d="M852.687,1183.303h49.734l0.039-0.079c1.884-3.854,0.038-7.756-4.096-8.904l-33.315-7.927
				c-1.138-0.271-2.303-0.407-3.472-0.407h-8.89V1183.303z"/>
			<path style="fill:none;stroke:#282626;stroke-width:3;stroke-linecap:round;stroke-miterlimit:10;" d="M902.42,1183.303
				l0.039-0.079c1.884-3.854,0.038-7.756-4.096-8.904l-33.315-7.927c-1.138-0.271-2.303-0.407-3.472-0.407h-8.89"/>
			<path style="fill:#FFA519;" d="M699.257,841.869L699.257,841.869c-37.26,10.646-66.272,39.949-76.546,77.313l-55.771,202.822
				c-10.614,38.599,18.431,76.708,58.463,76.708h159.925l3.382-102.004l-117.771,4.482l48.063-230.735L699.257,841.869z"/>
			
				<line style="fill:none;stroke:#282626;stroke-width:3;stroke-linecap:round;stroke-miterlimit:10;" x1="754.42" y1="1098.013" x2="745.673" y2="1198.712"/>
			<polyline style="fill:none;stroke:#282626;stroke-width:3;stroke-linecap:round;stroke-miterlimit:10;" points="697.071,841.34 
				755.094,918.375 775.8,866.422 			"/>
			
				<line style="fill:none;stroke:#282626;stroke-width:3;stroke-linecap:round;stroke-miterlimit:10;" x1="775.8" y1="866.422" x2="801.965" y2="909.905"/>
			
				<line style="fill:none;stroke:#282626;stroke-width:3;stroke-linecap:round;stroke-miterlimit:10;" x1="699.897" y1="1198.712" x2="624.791" y2="1198.712"/>
			<polyline style="fill:none;stroke:#282626;stroke-width:3;stroke-linecap:round;stroke-miterlimit:10;" points="691.54,1002.283 
				670.938,1101.19 788.709,1096.708 786.858,1152.531 785.327,1198.712 			"/>
		</g>
		<g id="desk">
			<rect x="701.358" y="1198.712" style="fill:#BFBEBE;" width="1069.099" height="35.06"/>
			<polygon style="fill:#BFBEBE;" points="855.363,1831.709 811.009,1831.709 906.355,1263.547 950.709,1263.547 			"/>
			<polygon style="fill:#BFBEBE;" points="1616.451,1831.709 1660.805,1831.709 1565.46,1263.547 1521.106,1263.547 			"/>
			<rect x="768.731" y="1233.772" style="fill:#AAAAAA;" width="934.352" height="29.775"/>
		</g>
		<g id="woman">
			<path style="fill:#FCD2BE;" d="M1780.885,1698.491l-7.934,103.443h-107.17v-28.614c21.687-8.271,39.397-24.352,37.041-74.83
				H1780.885z"/>
			<path style="fill:#E2F0FB;" d="M1776.977,1749.444c13.79,7.182,13.438,73.585,3.908,82.266h-33.638
				c0.656-21.036-1.251-29.309-12.305-29.903c-2.642-0.142-5.292,0.235-7.846,0.926c-19.905,5.387-21.882,16.022-26.97,28.028
				h-69.308c-9.27,0-16.187-8.482-14.396-17.577c5.612-28.496,38.532-47.055,54.91-42.217l12.012,22.676
				C1705.835,1793.985,1752.554,1766.76,1776.977,1749.444z"/>
			<g>
				<defs>
					<path id="XMLID_00000002366228468001671800000001255631759086481846_" d="M1776.977,1749.444L1776.977,1749.444l3.908-50.953
						h-78.063c2.152,46.093-12.431,63.5-31.492,72.475c-16.379-4.834-49.295,13.723-54.907,42.218
						c-1.791,9.095,5.126,17.577,14.396,17.577h69.307c5.088-12.006,7.065-22.641,26.97-28.028c1.367-0.37,2.763-0.64,4.169-0.798
						h5.067c9.82,1.218,11.543,9.657,10.915,29.775h33.638C1790.415,1823.028,1790.767,1756.626,1776.977,1749.444z"/>
				</defs>
				<clipPath id="XMLID_00000100383064288814422210000003749814738328407985_">
					<use xlink:href="#XMLID_00000002366228468001671800000001255631759086481846_"  style="overflow:visible;"/>
				</clipPath>
				<path style="opacity:0.3;clip-path:url(#XMLID_00000100383064288814422210000003749814738328407985_);" d="M1697.341,1743.523
					c15.851,27.854,17.298,57.326,6.37,88.187h-91.848l1.807-58.193L1697.341,1743.523z"/>
			</g>
			<path style="fill:#FCD2BE;" d="M1692.622,1698.491l-7.934,103.443h-107.17v-28.614c21.687-8.271,39.397-24.352,37.041-74.83
				H1692.622z"/>
			<path style="fill:#E2F0FB;" d="M1688.714,1749.444c13.79,7.182,13.438,73.585,3.908,82.266h-33.638
				c0.656-21.036-1.25-29.309-12.305-29.903c-2.642-0.142-5.292,0.235-7.846,0.926c-19.905,5.387-21.882,16.022-26.97,28.028
				h-69.307c-9.27,0-16.187-8.482-14.396-17.577c5.612-28.496,38.532-47.055,54.91-42.217l12.012,22.676
				C1617.572,1793.985,1664.291,1766.76,1688.714,1749.444z"/>
			<polygon style="fill:#038FFF;" points="1786.582,1223.118 1775.852,1305.564 1815.382,1309.396 1812.529,1209.94 			"/>
			<path style="fill:#048FFF;" d="M1843.377,885.276l-20.29,6.856c-31.034,10.486-54.046,36.829-60.266,68.99l-37.937,196.153
				l-100.141,129.882l73.551,67.953l114.236-145.17c4.098-5.208,6.922-11.3,8.27-17.788
				C1844.189,1079.537,1858.499,972.83,1843.377,885.276z"/>
			
				<line style="fill:none;stroke:#282626;stroke-width:3;stroke-linecap:round;stroke-miterlimit:10;" x1="1698.293" y1="1355.11" x2="1812.529" y2="1209.94"/>
			<path style="fill:none;stroke:#282626;stroke-width:3;stroke-linecap:round;stroke-miterlimit:10;" d="M1823.087,892.132"/>
			<path style="fill:#FCD2BE;" d="M1648.812,1309.396l-15.053,18.032c-1.364,1.634-2.542,3.415-3.512,5.31l-10.587,20.678
				l36.49-37.241L1648.812,1309.396z"/>
			<path style="fill:#FCD2BE;" d="M1656.15,1316.175l-36.49,37.241l-7.465,11.646c-1.874,2.923-1.864,6.797,0.336,9.483
				c2.235,2.729,6.659,4.47,15.412,0.518l34.353-26.353l9.422-18.153L1656.15,1316.175z"/>
			<path style="fill:none;stroke:#282626;stroke-width:3;stroke-linecap:round;stroke-miterlimit:10;" d="M1646.791,1325.727
				l-19.518,19.919c-5.062,5.167-9.581,10.839-13.484,16.929l-1.595,2.488c-1.874,2.923-1.864,6.797,0.336,9.483
				c2.235,2.729,6.659,4.47,15.412,0.518"/>
			<path style="fill:#282626;" d="M1698.293,1703.95h102.232l36.601-363.478h-39.262c-46.862,0-85.41,36.912-87.44,83.73
				L1698.293,1703.95z"/>
			<path style="fill:#282626;" d="M1592.879,1703.95h102.232l36.601-363.478h-39.262c-46.862,0-85.41,36.912-87.44,83.73
				L1592.879,1703.95z"/>
			<g>
				<defs>
					<path id="XMLID_00000118365038238605771210000001268583443906605503_" d="M1869.919,853.597
						c-2.656,0.352-5.997,0.668-9.775,0.961c-61.794,2.34-85.006-56.226-78.618-112.507l4.033-25.261
						c6.841,17.124,15.679,34.124,50.648,37.191c3.016-16.548,30.637-19.351,32.618,7.221c0.51,13.836-5.212,19.957-13.27,23.186
						L1869.919,853.597z"/>
				</defs>
				<use xlink:href="#XMLID_00000118365038238605771210000001268583443906605503_"  style="overflow:visible;fill:#FCB381;"/>
				<clipPath id="XMLID_00000153677087465239791160000007692603533130760100_">
					<use xlink:href="#XMLID_00000118365038238605771210000001268583443906605503_"  style="overflow:visible;"/>
				</clipPath>
			</g>
			<g>
				<defs>
					<polygon id="XMLID_00000111153529775409383310000011519272181037045155_" points="1657.216,1479.454 1616.14,1832.695 
						1642.279,1832.695 1698.293,1479.454 					"/>
				</defs>
				<use xlink:href="#XMLID_00000111153529775409383310000011519272181037045155_"  style="overflow:visible;fill:#CECECE;"/>
				<clipPath id="XMLID_00000132066111629609000570000002149291586825700486_">
					<use xlink:href="#XMLID_00000111153529775409383310000011519272181037045155_"  style="overflow:visible;"/>
				</clipPath>
				<polygon style="clip-path:url(#XMLID_00000132066111629609000570000002149291586825700486_);fill:#EBEBEB;" points="
					1617.771,1818.667 1644.272,1818.667 1642.279,1832.695 1616.14,1832.695 				"/>
			</g>
			<g>
				<defs>
					<polygon id="XMLID_00000020377488073819163740000008677884154622009262_" points="1871.88,1479.597 1912.957,1832.838 
						1886.817,1832.838 1830.803,1479.597 					"/>
				</defs>
				<use xlink:href="#XMLID_00000020377488073819163740000008677884154622009262_"  style="overflow:visible;fill:#CECECE;"/>
				<clipPath id="XMLID_00000023999120291893105500000010648754754670668685_">
					<use xlink:href="#XMLID_00000020377488073819163740000008677884154622009262_"  style="overflow:visible;"/>
				</clipPath>
				<polygon style="clip-path:url(#XMLID_00000023999120291893105500000010648754754670668685_);fill:#EBEBEB;" points="
					1911.325,1818.81 1884.824,1818.81 1886.817,1832.838 1912.957,1832.838 				"/>
			</g>
			<g>
				<defs>
					<polygon id="XMLID_00000155134848864492254300000015806131339326332842_" points="1995.693,1479.597 2036.77,1832.838 
						2010.63,1832.838 1954.616,1479.597 					"/>
				</defs>
				<defs>
					<polygon id="XMLID_00000158731126805025157410000003288214515391770300_" points="1995.693,1479.597 2036.77,1832.838 
						2010.63,1832.838 1954.616,1479.597 					"/>
				</defs>
				<use xlink:href="#XMLID_00000155134848864492254300000015806131339326332842_"  style="overflow:visible;fill:#CECECE;"/>
				<use xlink:href="#XMLID_00000158731126805025157410000003288214515391770300_"  style="overflow:visible;opacity:0.2;"/>
				<clipPath id="XMLID_00000013895688699124778310000000541676169843856808_">
					<use xlink:href="#XMLID_00000155134848864492254300000015806131339326332842_"  style="overflow:visible;"/>
				</clipPath>
				
					<clipPath id="XMLID_00000003800673083908157630000009229183325342000031_" style="clip-path:url(#XMLID_00000013895688699124778310000000541676169843856808_);">
					<use xlink:href="#XMLID_00000158731126805025157410000003288214515391770300_"  style="overflow:visible;opacity:0.2;"/>
				</clipPath>
				<polygon style="clip-path:url(#XMLID_00000003800673083908157630000009229183325342000031_);fill:#EBEBEB;" points="
					2035.138,1818.81 2008.637,1818.81 2010.63,1832.838 2036.77,1832.838 				"/>
			</g>
			<path style="fill:#292626;" d="M1841.965,785.708l-3.388,169.121c-0.881,25.425-11.175,42.578-27.106,54.776
				c28.027,23.658,102.616,29.583,147.096,14.88c15.771-5.213,26.457-19.9,26.457-36.511V785.708H1841.965z"/>
			<path style="fill:#292626;" d="M1781.074,746.65c-29.838-35.02-4.16-95.242,57.127-115.208
				c29.976-10.4,90.752-16.792,126.639,30.018c13.3,17.348,20.184,38.769,20.184,60.629v63.62h-143.058L1781.074,746.65z"/>
			<path style="fill:#BFBEBE;" d="M2045.877,984.887c25.678,0,46.134,21.48,44.88,47.127l-18.35,375.448
				c-1.72,40.248-34.85,71.992-75.134,71.992h-354.289v-86.204c0-49.871,40.429-90.3,90.3-90.3l52.855-0.344l45.84-280.044
				c3.556-21.726,22.329-37.675,44.344-37.675H2045.877z"/>
		</g>
	</g>
	
		<line id="line" style="fill:none;stroke:#282626;stroke-width:3;stroke-linecap:round;stroke-miterlimit:10;" x1="157.355" y1="1832.838" x2="2142.645" y2="1832.838"/>
</g>
</svg>
